HIERARCHY
ROOT pelvis
{
  OFFSET 0 100 0
  CHANNELS 6 Xposition Yposition Zposition Zrotation Xrotation Yrotation
  JOINT pelvis_right_femur
  {
    OFFSET -10.78128 -3.44521 -0.5502486
    CHANNELS 3 Zrotation Xrotation Yrotation
    JOINT right_femur_tibia
    {
      OFFSET -0.8047443 -44.0398 -0.1307829
      CHANNELS 3 Zrotation Xrotation Yrotation
      JOINT right_tibia_foot
      {
        OFFSET 3.006224 -47.83518 -5
        CHANNELS 3 Zrotation Xrotation Yrotation
        End Site
        {
          OFFSET 0 -5 15
        }
      }
    }
  }
  JOINT pelvis_left_femur
  {
    OFFSET 10.78128 -3.44521 -0.5502486
    CHANNELS 3 Zrotation Xrotation Yrotation
    JOINT left_femur_tibia
    {
      OFFSET 0.8047443 -44.0398 -0.1307829
      CHANNELS 3 Zrotation Xrotation Yrotation
      JOINT left_tibia_foot
      {
        OFFSET -4.370144 -48.10324 -4.275266
        CHANNELS 3 Zrotation Xrotation Yrotation
        End Site
        {
          OFFSET 0 -5 15
        }
      }
    }
  }
  JOINT pelvis_spine1
  {
    OFFSET 0 6.468898 -3.129235
    CHANNELS 3 Zrotation Xrotation Yrotation
    JOINT spine1
    {
      OFFSET 0 23.15396 4.99043
      CHANNELS 3 Zrotation Xrotation Yrotation
      JOINT spine2
      {
        OFFSET 0 20.79997 -5.064912
        CHANNELS 3 Zrotation Xrotation Yrotation
        JOINT neck
        {
          OFFSET 0 14.38658 9.616178
          CHANNELS 3 Zrotation Xrotation Yrotation
          End Site
          {
            OFFSET 0 20 0
          }
        }
      }
      JOINT right_manubrium
      {
        OFFSET -5.722621 16.35077 3.967754
        CHANNELS 3 Zrotation Xrotation Yrotation
        JOINT right_clavicle
        {
          OFFSET -13.16364 1.694482 -4.693211
          CHANNELS 3 Zrotation Xrotation Yrotation
          JOINT right_humerus
          {
            OFFSET -28.5034 -0.3100689 -2.792744
            CHANNELS 3 Zrotation Xrotation Yrotation
            JOINT right_radius
            {
              OFFSET -25.15693 0.02248979 -1.271978
              CHANNELS 3 Zrotation Xrotation Yrotation
              End Site
              {
                OFFSET -15 0 0
              }
            }
          }
        }
      }
      JOINT left_manubrium
      {
        OFFSET 5.722621 16.35077 3.967754
        CHANNELS 3 Zrotation Xrotation Yrotation
        JOINT left_clavicle
        {
          OFFSET 13.16364 1.694482 -4.693211
          CHANNELS 3 Zrotation Xrotation Yrotation
          JOINT left_humerus
          {
            OFFSET 29.39168 -1.063119 -2.237045
            CHANNELS 3 Zrotation Xrotation Yrotation
            JOINT left_radius
            {
              OFFSET 24.59957 -0.9528479 0.9047498
              CHANNELS 3 Zrotation Xrotation Yrotation
              End Site
              {
                OFFSET 15 -0 -0
              }
            }
          }
        }
      }
    }
  }
}
MOTION
Frames: 19
Frame Time: 0.0416666666667
0 103.5113 0 2.326787 -1.986767 0.1386539 1.251659 -11.65417 7.825387 -0 37.13758 -0 -4.562025 -18.52837 -3.181042 -7.81596 11.53381 -23.95889 -0 4.77748 -0 7.45489 -15.73402 25.84747 -3.018858 -4.249235 5.574794 1.796889 9.82012 -7.478439 2.331563 21.20711 6.200085 3.126728 -25.4059 10.23854 6.16313 -20.73384 10.82868 85.9137 35.69431 -19.92912 -0 0 18.16532 -6.286375 7.549607 2.430532 7.274061 -20.53105 -1.255836 -95.5245 26.52733 23.99479 0 0 -15.57155 10.43792 18.37166 3.407356
0.2436104 103.578 1.327426 1.639137 -1.101188 0.09871292 2.409259 -13.99289 8.854416 -0 37.31138 -0 -4.408826 -17.93332 -3.634756 -7.401776 11.33704 -23.83921 -0 5.060693 -0 6.602376 -16.96684 25.97882 -2.937877 -4.178392 5.568424 1.798924 9.803849 -7.475986 2.302656 21.18678 6.227926 3.162671 -25.38785 10.18939 6.154508 -20.66504 10.82849 85.90649 35.67211 -19.92642 -0 0 18.05771 -6.356854 7.623755 2.494494 7.268017 -20.56621 -1.247386 -95.5026 26.54815 23.9784 0 0 -15.63727 10.30255 18.30347 3.544222
0.4901134 103.5343 2.883523 0.7616339 -0.4434814 0.05407757 3.68684 -17.85035 8.5737 -0 35.33837 -0 -5.169905 -15.69304 -3.640243 -6.775149 11.41843 -22.94674 -0 5.235103 -0 5.217947 -18.92296 25.1577 -2.637365 -3.611155 5.334677 2.090381 9.701787 -7.620544 2.065946 20.95056 6.52139 3.239752 -25.89327 10.16489 5.966267 -20.25854 10.93943 86.28934 35.95473 -20.21985 -0 0 16.91987 -6.365871 7.817065 2.946389 7.174088 -20.71447 -1.173441 -94.54886 26.14143 23.10318 0 0 -17.16788 10.58893 17.17159 3.216972
0.7425078 103.4183 4.579101 0.1494997 0.3992805 0.01325146 4.753739 -20.97699 8.929229 -0 33.77505 -0 -5.302109 -14.44342 -3.764969 -6.412661 11.33426 -22.41418 -0 5.273297 -0 4.569961 -20.28899 24.75727 -2.447526 -3.27688 5.195514 2.260262 9.660827 -7.71121 1.918857 20.80744 6.686603 3.29385 -26.13664 10.11173 5.866382 -19.9966 11.01558 86.50282 36.09369 -20.38426 -0 0 16.22263 -6.45457 7.9959 3.252795 7.114287 -20.82287 -1.135758 -93.96693 25.83199 22.55283 0 0 -18.01409 10.72888 16.48988 3.020318
1.007576 103.1182 6.562753 -0.3506755 1.295461 0.01319824 5.647314 -24.72042 8.659484 -0 30.52533 -0 -5.544701 -12.56636 -3.550062 -6.139964 11.4373 -21.49265 -0 5.208309 -0 4.242958 -21.67114 23.97609 -2.274493 -2.941851 5.037866 2.451717 9.633899 -7.822549 1.765571 20.65259 6.8555 3.341574 -26.3943 10.06 5.762329 -19.72784 11.10583 86.7545 36.24269 -20.58739 -0 0 15.47458 -6.556546 8.186761 3.579307 7.05213 -20.94504 -1.108885 -93.30811 25.44287 21.91316 0 0 -18.93562 10.93958 15.74248 2.735306
1.281056 102.6264 8.871733 -0.6886643 2.214274 0.08010832 6.319543 -28.14586 8.312906 -0 26.88554 -0 -5.638283 -10.79825 -3.238214 -5.994069 11.66623 -20.60584 -0 5.214695 -0 4.143727 -22.79254 23.16325 -2.128013 -2.652716 4.89209 2.625526 9.622949 -7.931208 1.628072 20.51215 7.000875 3.384541 -26.60057 10.00096 5.672962 -19.48304 11.19212 86.9891 36.3584 -20.78534 -0 0 14.79326 -6.682607 8.378875 3.882804 6.997855 -21.06803 -1.096616 -92.69957 25.05529 21.30577 0 0 -19.75725 11.13044 15.05969 2.46474
1.554111 101.9255 11.63657 -0.922251 3.101727 0.2580341 6.760069 -31.4905 7.575904 -0 22.46653 -0 -5.77071 -8.647388 -2.737003 -5.906602 12.18963 -19.52547 -0 5.535245 -0 4.035086 -23.70951 22.02778 -1.99578 -2.381572 4.743119 2.798154 9.622971 -8.048525 1.494781 20.37173 7.139716 3.426962 -26.78746 9.936986 5.586858 -19.24365 11.27964 87.23985 36.45847 -21.01038 -0 0 14.11567 -6.827445 8.576941 4.182415 6.949489 -21.20461 -1.100536 -92.08515 24.65645 20.67742 0 0 -20.58955 11.31732 14.3772 2.199142
1.813516 101.0688 14.96473 -1.108104 3.878852 0.5863642 7.047285 -34.28652 6.679232 -0 18.1153 -0 -5.958627 -6.328844 -2.168474 -5.825964 12.99715 -18.38865 -0 6.514815 -0 3.696381 -24.21794 20.61987 -1.868391 -2.124461 4.594079 2.962987 9.632905 -8.172145 1.365194 20.23152 7.272033 3.473639 -26.94526 9.860729 5.504445 -19.00682 11.36561 87.50584 36.53789 -21.26379 -0 0 13.44372 -7.003177 8.787409 4.480324 6.908641 -21.36001 -1.122273 -91.47618 24.26897 20.04166 0 0 -21.43245 11.4652 13.70279 1.982281
2.044005 100.1692 18.98369 -1.342871 4.454354 1.097733 7.312402 -36.19339 5.752142 -0 14.43442 -0 -6.275735 -3.917662 -1.615887 -5.656186 14.0618 -17.18221 -0 8.674792 -0 2.759086 -24.07522 18.77955 -1.733033 -1.871721 4.446684 3.114685 9.653691 -8.30158 1.236263 20.08938 7.398876 3.529807 -27.06443 9.761037 5.425017 -18.76591 11.44953 87.79107 36.5944 -21.5498 -0 0 12.76874 -7.231728 9.023272 4.78709 6.87544 -21.54237 -1.163459 -90.87209 23.90763 19.40181 0 0 -22.29721 11.53843 13.03256 1.857633
2.239179 99.41691 23.76076 -1.736233 4.750159 1.778957 7.774685 -36.64479 5.148422 -0 12.42372 -0 -6.735036 -1.89046 -1.217372 -5.295295 15.08029 -16.01413 -0 12.54598 -0 0.945655 -22.89559 16.50989 -1.57453 -1.617715 4.31237 3.237112 9.68865 -8.428556 1.107859 19.95011 7.51334 3.599848 -27.11592 9.618982 5.351689 -18.51835 11.52898 88.08138 36.61754 -21.85042 -0 0 12.10767 -7.551323 9.301618 5.113573 6.848171 -21.753 -1.221893 -90.29779 23.59788 18.79009 0 0 -23.13926 11.47645 12.3876 1.891546
2.412813 99.03359 29.25549 -2.341504 4.748021 2.530159 8.520272 -35.2395 5.081493 -0 12.57796 -0 -7.28796 -0.8272339 -1.063856 -4.678092 15.49419 -14.90958 -0 18.47562 -0 -1.775597 -20.34506 13.90421 -1.38086 -1.361152 4.212172 3.306282 9.741997 -8.535591 0.9827457 19.82725 7.601408 3.684121 -27.05804 9.413479 5.289716 -18.2673 11.60065 88.34071 36.59224 -22.11766 -0 0 11.50527 -8.007388 9.635678 5.470114 6.820781 -21.97876 -1.288691 -89.8007 23.36788 18.26565 0 0 -23.85453 11.21155 11.80807 2.151397
2.597926 99.17426 35.29893 -3.023053 4.476513 3.150312 9.279003 -32.04405 5.368501 -0 14.2691 -0 -7.808936 -1.034096 -1.139329 -3.896628 14.70903 -13.73091 -0 26.30433 -0 -4.790397 -16.46345 11.33436 -1.153177 -1.106831 4.171683 3.299063 9.814902 -8.597216 0.8657285 19.74212 7.647435 3.776828 -26.85244 9.132846 5.242864 -18.02251 11.66143 88.51241 36.5037 -22.27319 -0 0 11.02701 -8.632692 10.02162 5.864628 6.781809 -22.18658 -1.348318 -89.43868 23.23341 17.90008 0 0 -24.29883 10.70311 11.33563 2.667364
2.818538 99.86675 41.66737 -3.447586 3.875958 3.403852 9.592462 -27.55522 5.565091 -0 16.00538 -0 -8.164642 -2.143913 -1.356283 -3.199863 12.50581 -12.25 -0 35.60246 -0 -7.032477 -11.86715 9.377844 -0.9110859 -0.8596359 4.203481 3.211047 9.904034 -8.594269 0.7579023 19.71076 7.647763 3.869244 -26.49043 8.783913 5.206089 -17.79252 11.71245 88.55231 36.34568 -22.24812 -0 0 10.71157 -9.435315 10.43713 6.310633 6.718211 -22.33973 -1.389743 -89.23015 23.17123 17.71962 0 0 -24.38794 9.976332 10.96258 3.397154
3.070393 101.0555 48.12341 -3.319317 2.792588 3.15968 9.234127 -22.21636 5.42087 -0 16.79046 -0 -8.423197 -3.568927 -1.576671 -2.828267 8.882442 -10.5991 -0 45.79586 -0 -7.757695 -7.610828 8.571633 -0.6842492 -0.619481 4.303076 3.055248 10.00642 -8.521723 0.6551755 19.73613 7.611449 3.954403 -25.98825 8.383009 5.164456 -17.58171 11.75948 88.45152 36.1169 -22.01245 -0 0 10.55319 -10.41963 10.85578 6.834317 6.620589 -22.41671 -1.416077 -89.13794 23.12653 17.68767 0 0 -24.14248 9.098563 10.62171 4.261269
3.334472 102.6204 54.40182 -2.57863 1.208071 2.519029 8.234352 -16.23706 4.885796 -0 16.38197 -0 -8.821016 -5.106359 -1.573257 -2.851717 3.734283 -9.321515 -0 55.50705 -0 -7.212239 -4.783975 9.001339 -0.5026419 -0.3860509 4.467236 2.839416 10.12222 -8.376459 0.5550698 19.81704 7.54738 4.026931 -25.36141 7.945305 5.099732 -17.40386 11.80719 88.21748 35.81766 -21.5524 -0 0 10.55172 -11.60563 11.25173 7.465334 6.48372 -22.40455 -1.440017 -89.11919 23.06293 17.76936 0 0 -23.62064 8.117951 10.23969 5.218282
3.594044 104.2988 60.28328 -1.398039 -0.6415286 1.78045 6.801726 -9.888708 4.072093 -0 14.71278 -0 -9.214088 -6.802445 -1.210205 -3.055029 -2.797696 -8.677107 -0 62.14757 -0 -6.289139 -3.862396 10.23928 -0.3970106 -0.1670369 4.702832 2.558098 10.25288 -8.150607 0.4615143 19.95308 7.460208 4.080524 -24.62363 7.490278 4.996836 -17.29373 11.85694 87.85905 35.46407 -20.85468 -0 0 10.74573 -13.01727 11.59973 8.221953 6.30538 -22.2894 -1.477738 -89.15584 22.98666 17.97314 0 0 -22.88265 7.054714 9.775121 6.278429
3.83549 105.6849 65.73807 -0.166679 -2.451921 1.191815 5.433896 -3.729877 3.42331 -0 12.11621 -0 -8.849821 -8.571309 -0.7558066 -2.880145 -9.812956 -8.08055 -0 63.16161 -0 -5.620039 -4.246628 11.81544 -0.4001279 0.01710415 5.02225 2.2026 10.39811 -7.835414 0.3850438 20.14193 7.351622 4.105472 -23.7955 7.048002 4.848124 -17.3028 11.90858 87.3756 35.0924 -19.90156 -0 0 11.20381 -14.66684 11.88629 9.104731 6.084754 -22.05438 -1.542551 -89.25089 22.922 18.34004 0 0 -21.97972 5.93174 9.226632 7.454087
4.054083 106.4219 70.936 0.6385117 -4.07953 0.7423123 4.706236 1.64062 3.312848 -0 9.581445 -0 -7.359018 -10.21681 -0.6978592 -1.797479 -15.90645 -6.700884 -0 58.09637 -0 -5.177926 -4.901295 13.65348 -0.5414714 0.135775 5.440504 1.769546 10.548 -7.417781 0.3424661 20.37981 7.218172 4.08772 -22.9033 6.656455 4.651164 -17.48802 11.95792 86.72589 34.72917 -18.63852 -0 0 12.01405 -16.5507 12.11221 10.10207 5.820071 -21.66938 -1.633386 -89.43305 22.87999 18.93439 0 0 -20.90098 4.790555 8.632238 8.712872
4.27342 106.3966 76.0937 0.7961867 -5.347711 0.2736821 4.707748 6.079533 3.428695 -0 7.978427 -0 -5.605328 -11.82252 -1.013101 0.02038881 -20.31189 -4.655367 -0 48.77462 -0 -4.721 -5.378822 15.6664 -0.8327005 0.1589641 5.963978 1.270683 10.677 -6.886931 0.3544105 20.65396 7.054159 4.013004 -21.99312 6.35831 4.40452 -17.89902 11.99338 85.83805 34.37092 -16.9907 -0 0 13.25042 -18.62863 12.28724 11.18903 5.513818 -21.10043 -1.732192 -89.74565 22.85481 19.82132 0 0 -19.59551 3.693683 8.057423 9.968256
